<?xml version="1.0" encoding="UTF-8"?>
<svg xmlns="http://www.w3.org/2000/svg" version="1.1" viewBox="0 0 110.68 132.75">
  <defs>
    <style>
      .cls-1 {
        fill: #214082;
      }
    </style>
  </defs>
  <!-- Generator: Adobe Illustrator 28.7.0, SVG Export Plug-In . SVG Version: 1.2.0 Build 23)  -->
  <g>
    <g id="Layer_1">
      <path class="cls-1" d="M65.33,89.76c-.1,0-.21,0-.31,0-1.68-.1-2.46-.95-2.82-1.65-1.23-2.35.43-6.31,2.01-9.5.11-.22.19-.38.23-.47.07-.26.25-.48.49-.6.34-.16.74-.09,1,.19.21.22,3.66,6.95,2.31,10.23-.35.84-1.13,1.81-2.9,1.81ZM65.28,80.55c-1.92,4.13-1.91,5.88-1.53,6.61.08.15.32.6,1.36.67,1.06.06,1.32-.37,1.4-.51.71-1.24-.29-4.51-1.23-6.76ZM64.39,78.46h0s0,0,0,0ZM64.39,78.46h0s0,0,0,0Z"/>
      <path class="cls-1" d="M83.53,89.76c-.1,0-.21,0-.31,0-1.68-.1-2.46-.95-2.82-1.65-1.23-2.35.43-6.31,2.01-9.5.11-.22.19-.38.23-.47.07-.26.25-.48.49-.6.34-.16.74-.09,1,.19.21.22,3.66,6.95,2.31,10.23-.35.84-1.13,1.81-2.9,1.81ZM83.48,80.55c-1.92,4.13-1.91,5.88-1.53,6.61.08.15.32.6,1.36.67,1.06.06,1.32-.37,1.4-.51.71-1.24-.29-4.51-1.23-6.76ZM82.59,78.46h0s0,0,0,0ZM82.59,78.46h0s0,0,0,0Z"/>
      <path class="cls-1" d="M54.12,89.76c-.1,0-.21,0-.31,0-1.68-.1-2.46-.95-2.82-1.65-1.23-2.35.43-6.31,2.01-9.5.11-.22.19-.38.23-.47.07-.26.25-.48.49-.6.34-.16.74-.09,1,.19.21.22,3.66,6.95,2.31,10.23-.35.84-1.13,1.81-2.9,1.81ZM54.07,80.55c-1.92,4.13-1.91,5.88-1.53,6.61.08.15.32.6,1.36.67,1.06.06,1.32-.37,1.4-.51.71-1.24-.29-4.51-1.23-6.76ZM53.18,78.46h0s0,0,0,0ZM53.18,78.46h0s0,0,0,0Z"/>
      <path class="cls-1" d="M81.23,75.36h-26.14c-6.94,0-12.58-5.58-12.58-12.45,0-5.99,4.34-11.11,10.22-12.22.99-4.71,5.22-8.16,10.14-8.16s8.72,3.06,9.96,7.44c.72-.21,1.46-.31,2.22-.31,3.54,0,6.63,2.32,7.63,5.62,4.97.7,8.76,4.95,8.76,9.98,0,5.57-4.58,10.1-10.21,10.1ZM62.87,44.59c-4.16,0-7.7,3.07-8.24,7.14l-.1.79-.79.1c-5.24.66-9.18,5.08-9.18,10.29,0,5.73,4.72,10.39,10.53,10.39h26.14c4.49,0,8.15-3.61,8.15-8.04s-3.33-7.73-7.59-8.01l-.79-.05-.15-.77c-.54-2.73-2.97-4.71-5.8-4.71-.87,0-1.72.19-2.53.57l-1.24.58-.21-1.35c-.64-4.01-4.09-6.92-8.2-6.92Z"/>
      <g>
        <path class="cls-1" d="M53.11,104.59c-14.99,0-27.19-12.2-27.19-27.19,0-5.05,1.4-9.99,4.04-14.26l20.77-33.67c.5-.82,1.38-1.3,2.34-1.31h0c.96,0,1.83.48,2.34,1.3l7.43,12.53c.37.62.16,1.41-.45,1.77-.61.37-1.41.16-1.77-.45l-7.42-12.5h0s-.04-.05-.12-.05h0c-.09,0-.13.06-.14.08l-20.77,33.66c-2.39,3.87-3.65,8.33-3.65,12.9,0,13.56,11.04,24.6,24.6,24.6,9.19,0,17.54-5.06,21.81-13.21.33-.63,1.11-.88,1.75-.55.63.33.88,1.11.55,1.75-4.71,9-13.95,14.6-24.1,14.6Z"/>
        <path class="cls-1" d="M53.11,104.91c-15.17,0-27.51-12.34-27.51-27.51,0-5.11,1.41-10.1,4.09-14.43l20.77-33.67c.56-.91,1.54-1.46,2.61-1.46,1.08,0,2.05.54,2.62,1.45l7.43,12.53c.46.77.2,1.76-.57,2.22-.37.22-.81.28-1.23.18-.42-.11-.77-.37-.99-.74l-7.26-12.25-20.63,33.44c-2.36,3.82-3.6,8.22-3.6,12.73,0,13.39,10.89,24.28,24.28,24.28,9.07,0,17.31-4.99,21.52-13.03.41-.79,1.4-1.1,2.19-.68.79.41,1.1,1.39.68,2.18-4.77,9.11-14.12,14.77-24.39,14.77ZM53.07,28.49c-.85,0-1.62.43-2.07,1.15l-20.77,33.67c-2.61,4.23-3.99,9.1-3.99,14.09,0,14.81,12.05,26.87,26.87,26.87,10.03,0,19.16-5.53,23.82-14.42.25-.47.06-1.06-.41-1.31-.47-.25-1.06-.06-1.31.41-4.32,8.25-12.79,13.38-22.1,13.38-13.74,0-24.92-11.18-24.92-24.92,0-4.63,1.28-9.15,3.7-13.07l20.77-33.66c.17-.27.6-.3.79-.06l7.44,12.54c.13.22.34.38.6.45.25.06.51.03.73-.11.46-.27.61-.87.34-1.33l-7.43-12.53c-.44-.71-1.21-1.14-2.06-1.14Z"/>
      </g>
    </g>
  </g>
</svg>