<?xml version="1.0" encoding="UTF-8"?>
<svg xmlns="http://www.w3.org/2000/svg" version="1.1" viewBox="0 0 110.68 132.75">
  <defs>
    <style>
      .cls-1 {
        fill: #214082;
        stroke: #214082;
        stroke-linecap: round;
        stroke-width: 5px;
      }

      .cls-1, .cls-2 {
        stroke-linejoin: round;
      }

      .cls-2 {
        fill: #fff;
        stroke: #fff;
        stroke-width: .5px;
      }
    </style>
  </defs>
  <!-- Generator: Adobe Illustrator 28.7.0, SVG Export Plug-In . SVG Version: 1.2.0 Build 23)  -->
  <g>
    <g id="Layer_1">
      <path class="cls-1" d="M80.41,63.25h0c1.49-3.82,2.12-8.06,1.61-12.51-1.37-12-11.07-21.62-23.08-22.88-15.66-1.64-28.88,10.6-28.88,25.92,0,3.33.63,6.51,1.77,9.44l4.4,7.74,19.79,33.92v.16s.05-.08.05-.08l.05.08v-.16s22.04-37.76,22.04-37.76l2.26-3.87Z"/>
      <g>
        <path class="cls-2" d="M73.57,53.77h-4.32c0,5.11-4.14,9.25-9.25,9.25s-9.26-4.14-9.26-9.25h-12.07c0,9.64,7.81,17.45,17.45,17.45s17.45-7.81,17.45-17.45Z"/>
        <path class="cls-2" d="M57.01,57.16c2.24,0,4.05-1.82,4.05-4.06,0-.66-.16-1.28-.43-1.83l.03.05-3.7-7.64-3.37,7.17-.21.44c-.27.55-.42,1.16-.42,1.81,0,2.24,1.82,4.06,4.05,4.06Z"/>
        <path class="cls-2" d="M65.26,52.78c0,3.68-2.99,6.67-6.67,6.67-1.15,0-2.21-.32-3.17-.8-.34-.17-1.64-1.13-1.64-1.13.57.66,1.47,1.35,1.47,1.35.86.66,2.58,1.71,4.71,1.71,4.15,0,7.52-3.37,7.52-7.52,0-1.3-.33-2.52-.91-3.58l-7.15-13.38-.81,2.67,6.12,11.42c.34.8.52,1.67.52,2.59Z"/>
      </g>
    </g>
  </g>
</svg>