<?xml version="1.0" encoding="UTF-8"?>
<svg xmlns="http://www.w3.org/2000/svg" version="1.1" viewBox="0 0 110.68 132.75">
  <defs>
    <style>
      .cls-1 {
        fill: #214082;
      }
    </style>
  </defs>
  <!-- Generator: Adobe Illustrator 28.7.0, SVG Export Plug-In . SVG Version: 1.2.0 Build 23)  -->
  <g>
    <g id="Layer_1">
      <g>
        <path class="cls-1" d="M52.9,104.59c-14.99,0-27.19-12.2-27.19-27.19,0-5.05,1.4-9.99,4.04-14.26l20.77-33.67c.5-.82,1.38-1.3,2.34-1.31h0c.96,0,1.83.48,2.34,1.3l7.43,12.53c.37.62.16,1.41-.45,1.77-.61.37-1.41.16-1.77-.45l-7.42-12.5h0s-.04-.05-.12-.05h0c-.09,0-.13.06-.14.08l-20.77,33.66c-2.39,3.87-3.65,8.33-3.65,12.9,0,13.56,11.04,24.6,24.6,24.6,9.19,0,17.54-5.06,21.81-13.21.33-.63,1.11-.88,1.75-.55.63.33.88,1.11.55,1.75-4.71,9-13.95,14.6-24.1,14.6Z"/>
        <path class="cls-1" d="M52.9,104.91c-15.17,0-27.51-12.34-27.51-27.51,0-5.11,1.41-10.1,4.09-14.43l20.77-33.67c.56-.91,1.54-1.46,2.61-1.46,1.08,0,2.05.54,2.62,1.45l7.43,12.53c.46.77.2,1.76-.57,2.22-.37.22-.81.28-1.23.18-.42-.11-.77-.37-.99-.74l-7.26-12.25-20.63,33.44c-2.36,3.82-3.6,8.22-3.6,12.73,0,13.39,10.89,24.28,24.28,24.28,9.07,0,17.31-4.99,21.52-13.03.41-.79,1.4-1.1,2.19-.68.79.41,1.1,1.39.68,2.18-4.77,9.11-14.12,14.77-24.39,14.77ZM52.86,28.49c-.85,0-1.62.43-2.07,1.15l-20.77,33.67c-2.61,4.23-3.99,9.1-3.99,14.09,0,14.81,12.05,26.87,26.87,26.87,10.03,0,19.16-5.53,23.82-14.42.25-.47.06-1.06-.41-1.31-.47-.25-1.06-.06-1.31.41-4.32,8.25-12.79,13.38-22.1,13.38-13.74,0-24.92-11.18-24.92-24.92,0-4.63,1.28-9.15,3.7-13.07l20.77-33.66c.17-.27.6-.3.79-.06l7.44,12.54c.13.22.34.38.6.45.25.06.51.03.73-.11.46-.27.61-.87.34-1.33l-7.43-12.53c-.44-.71-1.21-1.14-2.06-1.14Z"/>
      </g>
      <g>
        <path class="cls-1" d="M45.3,74.72c-.71-.11-1.19-.78-1.07-1.49,1.35-8.31,9.14-13.95,17.75-12.83,4.73.62,8.84,3.85,10.74,8.45.27.66-.04,1.42-.7,1.69-.66.27-1.42-.04-1.69-.7-1.55-3.74-4.86-6.38-8.68-6.87-7.21-.94-13.74,3.75-14.86,10.68-.11.71-.78,1.19-1.49,1.07Z"/>
        <path class="cls-1" d="M45.25,75.04c-.88-.14-1.48-.98-1.34-1.86,1.37-8.49,9.33-14.24,18.11-13.1,4.84.65,9.06,3.95,11,8.65.17.4.16.84,0,1.24s-.48.71-.88.88c-.83.34-1.78-.05-2.11-.88-1.5-3.64-4.73-6.2-8.42-6.67-7.04-.91-13.4,3.66-14.5,10.41-.14.88-.98,1.48-1.86,1.34ZM62.31,60.78c-.13-.02-.25-.04-.38-.06-8.43-1.1-16.07,4.42-17.39,12.56-.09.53.27,1.03.8,1.11s1.03-.28,1.11-.8c1.15-7.1,7.84-11.9,15.22-10.95,3.92.52,7.34,3.21,8.94,7.07.2.49.77.73,1.27.53.24-.1.43-.29.53-.52.1-.24.1-.5,0-.74-1.8-4.36-5.65-7.47-10.1-8.2Z"/>
      </g>
      <g>
        <path class="cls-1" d="M94.85,83.5c-.69,0-1.27-.55-1.29-1.24-.24-5.97-6.03-11.01-12.65-11.01-6.08,0-12.63,3.43-12.63,10.96,0,.72-.58,1.3-1.3,1.3s-1.3-.58-1.3-1.3c0-8.9,7.66-13.55,15.22-13.55,8.1,0,14.94,6.06,15.24,13.5.03.71-.53,1.32-1.24,1.35-.02,0-.04,0-.05,0Z"/>
        <path class="cls-1" d="M94.85,83.83c-.87,0-1.58-.68-1.62-1.55-.23-5.8-5.88-10.7-12.33-10.7-5.93,0-12.31,3.33-12.31,10.64,0,.89-.73,1.62-1.62,1.62s-1.62-.73-1.62-1.62c0-9.11,7.82-13.88,15.55-13.88,8.28,0,15.26,6.2,15.56,13.81.04.89-.66,1.65-1.55,1.68h-.07ZM80.91,70.92c6.79,0,12.73,5.19,12.97,11.32.02.52.45.93.97.93v.32l.04-.32c.54-.02.96-.47.93-1.01-.29-7.27-6.98-13.19-14.92-13.19-7.4,0-14.9,4.54-14.9,13.23,0,.54.44.97.97.97s.97-.44.97-.97c0-7.75,6.72-11.29,12.96-11.29Z"/>
      </g>
      <g>
        <path class="cls-1" d="M60.92,57.78c-4.25,0-7.72-3.46-7.72-7.72s3.46-7.72,7.72-7.72c4.25,0,7.72,3.46,7.72,7.72s-3.46,7.71-7.72,7.71ZM60.92,44.94c-2.83,0-5.13,2.3-5.13,5.13s2.3,5.13,5.13,5.13,5.13-2.3,5.13-5.12-2.3-5.13-5.13-5.13Z"/>
        <path class="cls-1" d="M60.92,58.1c-4.43,0-8.04-3.61-8.04-8.04s3.61-8.04,8.04-8.04c4.43,0,8.04,3.61,8.04,8.04s-3.61,8.04-8.04,8.04ZM60.92,42.67c-4.08,0-7.39,3.32-7.39,7.39s3.32,7.39,7.39,7.39,7.39-3.32,7.39-7.39-3.32-7.39-7.39-7.39ZM60.92,55.51c-3,0-5.45-2.44-5.45-5.45s2.44-5.45,5.45-5.45h0c3,0,5.45,2.45,5.45,5.45s-2.44,5.45-5.45,5.45ZM60.92,45.26c-2.65,0-4.8,2.15-4.8,4.8s2.15,4.8,4.8,4.8,4.8-2.15,4.8-4.8-2.15-4.8-4.8-4.8h0Z"/>
      </g>
      <g>
        <path class="cls-1" d="M80.92,66.61c-4.25,0-7.72-3.46-7.72-7.72s3.46-7.72,7.72-7.72,7.72,3.46,7.72,7.72-3.46,7.72-7.72,7.72ZM80.92,53.77c-2.83,0-5.13,2.3-5.13,5.13s2.3,5.13,5.13,5.13,5.13-2.3,5.13-5.13-2.3-5.13-5.13-5.13Z"/>
        <path class="cls-1" d="M80.92,66.93c-4.43,0-8.04-3.61-8.04-8.04s3.61-8.04,8.04-8.04,8.04,3.61,8.04,8.04-3.61,8.04-8.04,8.04ZM80.92,51.5c-4.08,0-7.39,3.32-7.39,7.39s3.32,7.39,7.39,7.39,7.39-3.32,7.39-7.39-3.32-7.39-7.39-7.39ZM80.92,64.34c-3,0-5.45-2.44-5.45-5.45s2.44-5.45,5.45-5.45,5.45,2.44,5.45,5.45-2.44,5.45-5.45,5.45ZM80.92,54.09c-2.65,0-4.8,2.15-4.8,4.8s2.15,4.8,4.8,4.8,4.8-2.15,4.8-4.8-2.15-4.8-4.8-4.8Z"/>
      </g>
    </g>
  </g>
</svg>